<svg xmlns="http://www.w3.org/2000/svg" width="80" height="80"><path class="si-icon" fill="#FFF" d="M58.15 30.43l.048.393-8.48 14.757-8.491 14.751-.464.306c-.754.491-1.775.293-2.28-.416-.148-.216-.613-2.193-.969-4.198-.122-.67-1.456-7.675-1.541-8.115-.041-.245-.287-1.47-.522-2.714l-.426-2.268-.612-.522a39.197 39.197 0 0 1-1.213-1.065c-.326-.293-2.975-2.579-5.873-5.087-3.188-2.753-5.351-4.68-5.465-4.89-.648-1.117.175-2.52 1.493-2.541.674-.015 5.307-.014 6.04.005.324.004.851-.004 1.18-.01a94.62 94.62 0 0 1 1.966-.013c2.92.03 8.915.022 10.896.005.583-.015 1.262-.015 1.51-.015s.804.008 1.235.009c.43 0 1.372-.003 2.091-.006.714.008 1.483.009 1.696.002.218.008 1.712-.003 3.327.003 3.665.004 3.68 0 4.082.231.372.215.706.812.772 1.398zM46.817 45.222c3.581-6.135 6.481-11.203 6.453-11.245-.075-.096-.038-.114-.763.328-.327.203-1.774 1.037-3.206 1.867-1.426.82-4.62 2.666-7.095 4.106l-4.49 2.598.244 1.341c.33 1.781 1.23 6.461 1.842 9.606l.506 2.56 6.509-11.16zm4.937-13.503c.325-.086.16-.39-.164-.303-.148.031-.974.037-4.194.03-.927 0-1.752.006-1.84.02a6.26 6.26 0 0 1-.718.003c-1.088-.015-5.012-.024-5.155-.003-.071.011-.897.017-1.833.011-.927 0-2.902.007-4.38.014-1.48.007-3.282.01-4.027.01a169.941 169.941 0 0 0-2.547.003c-.415-.005-.747.051-.72.119.016.061.9.859 1.954 1.767 1.055.91 2.267 1.974 2.69 2.35 1.332 1.198 5.295 4.62 5.461 4.717.098.056.587-.157 1.316-.584 3.345-1.929 6.854-3.959 9.167-5.297 4.537-2.636 4.846-2.81 4.99-2.857z" data-svg-origin="15.902239918708801 13.69399619102478"/></svg>