<svg width="244" height="244" xmlns="http://www.w3.org/2000/svg"><defs><linearGradient x1="65.97%" y1="43.69%" x2="85.12%" y2="80.24%" id="a"><stop stop-color="#EFF7FC" offset="0%"/><stop stop-color="#FFF" offset="100%"/></linearGradient></defs><g fill-rule="nonzero" fill="none"><path d="M100 177c-3.888 0-3.227-1.468-4.568-5.17L84 134.207 172 82" fill="#C8DAEA"/><path d="M100 177c3 0 4.326-1.372 6-3l16-15.558-19.958-12.035" fill="#A9C9DD"/><path d="M100.04 144.41l48.36 35.729c5.518 3.045 9.501 1.468 10.876-5.124l19.685-92.762c2.015-8.08-3.08-11.746-8.36-9.349l-115.59 44.571c-7.89 3.165-7.844 7.567-1.438 9.528l29.663 9.259 68.673-43.325c3.242-1.966 6.218-.91 3.776 1.258" fill="url(#a)" transform="translate(2 2)"/></g></svg>